<svg xmlns="http://www.w3.org/2000/svg" xmlns:xlink="http://www.w3.org/1999/xlink" version="1.1" x="0px" y="0px" viewBox="0 0 100 125" enable-background="new 0 0 100 100" xml:space="preserve"><path fill="#008cff" d="M95.138,78.312H84.658v-4.733c0-0.553-0.447-1-1-1h-4.746v-4.746c0-0.553-0.447-1-1-1h-4.746v-3.746h4.746  c0.553,0,1-0.447,1-1v-10.48h4.746c0.553,0,1-0.447,1-1V39.114c0-0.552-0.447-1-1-1H72.166c-0.553,0-1,0.448-1,1v4.746h-4.745  c-0.553,0-1,0.448-1,1v4.746h-3.736V44.86c0-0.552-0.447-1-1-1h-4.746v-4.746c0-0.552-0.447-1-1-1h-4.745v-4.746  c0-0.552-0.447-1-1-1h-4.746v-4.736c0-0.552-0.448-1-1-1h-4.734v-4.746c0-0.552-0.448-1-1-1h-4.748v-4.746c0-0.552-0.448-1-1-1  H27.22v-4.74c0-0.552-0.448-1-1-1h-4.746V4.655c0-0.552-0.448-1-1-1H3.248c-0.552,0-1,0.448-1,1v17.231c0,0.552,0.448,1,1,1h4.746  v4.746c0,0.552,0.448,1,1,1h4.746v4.736c0,0.552,0.448,1,1,1h4.734v4.746c0,0.552,0.448,1,1,1h4.746v4.746c0,0.552,0.448,1,1,1  h4.746v4.746c0,0.552,0.448,1,1,1h4.748v4.734c0,0.553,0.448,1,1,1h4.734v4.746c0,0.553,0.448,1,1,1h4.746v3.746h-4.746  c-0.552,0-1,0.447-1,1v4.746h-4.734c-0.552,0-1,0.447-1,1v11.479c0,0.553,0.448,1,1,1h11.48c0.553,0,1-0.447,1-1v-4.745h10.491  c0.553,0,1-0.448,1-1v-4.733h3.736v4.733c0,0.552,0.447,1,1,1h4.745v4.745c0,0.553,0.447,1,1,1h4.746v10.492c0,0.553,0.447,1,1,1  h17.226c0.553,0,1-0.447,1-1V79.312C96.138,78.76,95.69,78.312,95.138,78.312z M89.142,90.553h-5.233v-5.246h5.233V90.553z   M49.443,73.328v-5.246h10.991v5.246H49.443z M43.697,79.062v-5.233h5.246v5.233H43.697z M71.916,50.856v10.98h-5.245v-10.98H71.916  z M77.662,45.11v5.246h-5.246V45.11H77.662z M66.671,67.582v-5.246h5.245v5.246H66.671z M60.935,62.336h5.236v5.246h-5.236V62.336z   M66.171,61.836h-5.236v-10.98h5.236V61.836z M60.435,62.336v5.246H49.443v-5.246H60.435z M60.935,68.082h5.236v5.246h-5.236V68.082  z M66.671,68.082h5.245v5.246h-5.245V68.082z M72.416,73.828h5.246v5.233h-5.246V73.828z M78.162,79.562h5.246v5.245h-5.246V79.562z   M78.162,79.062v-5.233h5.246v5.233H78.162z M72.416,73.328v-5.246h5.246v5.246H72.416z M72.416,50.856h5.246v10.98h-5.246V50.856z   M78.162,44.86c0-0.138-0.112-0.25-0.25-0.25h-5.496v-5.246h10.992v10.992h-5.246V44.86z M71.916,50.356h-5.245V45.11h5.245V50.356z   M55.188,50.356V45.11h5.246v5.246H55.188z M49.443,44.61v-5.246h5.245v5.246H49.443z M43.697,38.864v-5.246h5.246v5.246H43.697z   M37.963,33.119v-5.236h5.234v5.236H37.963z M32.215,27.383v-5.246h5.248v5.246H32.215z M26.47,21.637v-5.246h5.246v5.246H26.47z   M20.724,15.891v-5.24h5.246v5.24H20.724z M8.994,10.151c-0.138,0-0.25,0.112-0.25,0.25v11.235H3.498V4.905h16.726v5.246H8.994z   M14.49,22.137v5.246H9.244v-5.246H14.49z M20.224,27.883v5.236H14.99v-5.236H20.224z M25.97,33.619v5.246h-5.246v-5.246H25.97z   M31.715,39.364v5.246H26.47v-5.246H31.715z M37.463,45.11v5.246h-5.248V45.11H37.463z M43.197,50.856v5.234h-5.234v-5.234H43.197z   M48.943,56.59v5.246h-5.246V56.59H48.943z M48.943,73.328h-5.246v-5.246h5.246V73.328z M43.197,79.312  c0,0.138,0.112,0.25,0.25,0.25h5.496v5.245h-10.98V73.828h5.234V79.312z M49.443,73.828h10.991v5.233H49.443V73.828z M71.916,73.828  v5.233h-5.245v-5.233H71.916z M77.662,79.562v5.245h-5.246v-5.245H77.662z M83.408,85.307v5.496c0,0.139,0.112,0.25,0.25,0.25h5.733  c0.138,0,0.25-0.111,0.25-0.25v-5.746c0-0.138-0.112-0.25-0.25-0.25h-5.483v-5.245h10.979v16.737H78.162V85.307H83.408z"/><text x="0" y="115" fill="#000000" font-size="5px" font-weight="bold" font-family="'Helvetica Neue', Helvetica, Arial-Unicode, Arial, Sans-serif">Created by Lluisa Iborra</text><text x="0" y="120" fill="#0466b8" font-size="5px" font-weight="bold" font-family="'Helvetica Neue', Helvetica, Arial-Unicode, Arial, Sans-serif">from the Noun Project</text></svg>